<svg width="512" height="512" viewBox="0 0 512 512" fill="none" xmlns="http://www.w3.org/2000/svg">
<g clip-path="url(#clip0_415_97)">
<circle cx="256" cy="256" r="256" fill="#FF9B72"/>
<path d="M402.441 404H110.305V387.04C119.633 386.757 127.265 385.909 133.201 384.496C139.137 383.083 143.66 380.68 146.769 377.288C149.878 373.896 151.998 369.091 153.129 362.872C154.26 356.653 154.825 348.597 154.825 338.704V142.816C154.825 132.923 154.26 125.008 153.129 119.072C152.281 112.853 150.444 108.048 147.617 104.656C144.79 100.981 140.692 98.5786 135.321 97.448C130.233 96.0346 123.449 95.0453 114.969 94.48V77.52H261.249V94.48C251.638 94.7627 243.865 95.6107 237.929 97.024C232.276 98.4373 227.894 100.981 224.785 104.656C221.676 108.331 219.556 113.419 218.425 119.92C217.577 126.421 217.153 135.043 217.153 145.784V323.44C217.153 335.312 218.284 345.064 220.545 352.696C223.089 360.045 227.329 365.84 233.265 370.08C239.201 374.037 247.116 376.864 257.009 378.56C266.902 379.973 279.198 380.68 293.897 380.68C310.292 380.68 324.001 379.691 335.025 377.712C346.049 375.733 355.236 372.059 362.585 366.688C370.217 361.035 376.294 353.544 380.817 344.216C385.34 334.888 389.156 322.733 392.265 307.752H409.225L402.441 404Z" fill="#FFFCDD"/>
</g>
<defs>
<clipPath id="clip0_415_97">
<rect width="512" height="512" fill="none"/>
</clipPath>
</defs>
</svg>
