<svg width="512" height="512" viewBox="0 0 512 512" fill="none" xmlns="http://www.w3.org/2000/svg">
<g clip-path="url(#clip0_681_86)">
<circle cx="256" cy="256" r="256" fill="#FF9B72"/>
<path d="M219.133 173.365V104.692C219.133 100.695 217.053 96.9859 213.643 94.9018L208.972 92.0477C207.3 91.0257 206.054 89.4334 205.464 87.5645V87.5645C203.811 82.3313 207.718 77 213.206 77H299.124C304.778 77 308.804 82.4929 307.101 87.8847V87.8847C306.572 89.5607 305.528 91.0275 304.118 92.0768L300.437 94.8163C297.527 96.9812 295.813 100.394 295.813 104.021V173.365M219.133 173.365V228.99C219.133 231.075 218.565 233.12 217.49 234.907L126.469 386.11C121.865 393.757 127.373 403.5 136.298 403.5H166.673M219.133 173.365H256.687M295.813 173.365V229.029C295.813 231.089 296.368 233.111 297.419 234.883L386.406 384.863C390.928 392.484 385.471 402.135 376.611 402.191L166.673 403.5M295.813 173.365H256.687M256.687 173.365V241.901C256.687 243.887 256.172 245.838 255.192 247.565L166.673 403.5" stroke="#FFFCDD" stroke-width="17.0056" stroke-linejoin="round"/>
<path d="M295.655 175.491H255.975V249.182L171.452 401.11L388.007 397.763L295.655 239.262V175.491Z" fill="#FFFCDD"/>
<path d="M241.315 174.073H236.64C229.322 174.073 223.389 180.006 223.389 187.325V229.104C223.389 231.575 222.698 233.997 221.394 236.096L133.837 377.041C128.353 385.868 134.701 397.285 145.093 397.285H151.641C156.232 397.285 160.496 394.908 162.911 391.004L252.585 246.008C253.88 243.914 254.566 241.5 254.566 239.038V187.325C254.566 180.006 248.633 174.073 241.315 174.073Z" stroke="#FFFCDD" stroke-width="17.0056"/>
<path d="M219.839 127.309V160.612C219.839 166.873 224.915 171.949 231.176 171.949H283.894C290.155 171.949 295.231 166.873 295.231 160.612V135.103" stroke="#FFFCDD" stroke-width="15.5885"/>
</g>
<defs>
<clipPath id="clip0_681_86">
<rect width="512" height="512" fill="white"/>
</clipPath>
</defs>
</svg>
